<mxfile host="app.diagrams.net" modified="2022-07-04T12:52:37.320Z" agent="5.0 (Windows NT 10.0; Win64; x64) AppleWebKit/537.36 (KHTML, like Gecko) Chrome/103.0.0.0 Safari/537.36" etag="etLAAeO0RZHfQQ8N3WZ1" version="20.0.4" type="github">
  <diagram id="WhfbZvc1xmy9iokzDwG-" name="Page-1">
    <mxGraphModel dx="1422" dy="794" grid="1" gridSize="10" guides="1" tooltips="1" connect="1" arrows="1" fold="1" page="1" pageScale="1" pageWidth="827" pageHeight="1169" math="0" shadow="0">
      <root>
        <mxCell id="0" />
        <mxCell id="1" parent="0" />
        <mxCell id="z9gnDFO_XMKvGu3rfgV3-7" value="" style="edgeStyle=orthogonalEdgeStyle;rounded=0;orthogonalLoop=1;jettySize=auto;html=1;" edge="1" parent="1" source="z9gnDFO_XMKvGu3rfgV3-1" target="z9gnDFO_XMKvGu3rfgV3-6">
          <mxGeometry relative="1" as="geometry" />
        </mxCell>
        <mxCell id="z9gnDFO_XMKvGu3rfgV3-9" value="" style="edgeStyle=orthogonalEdgeStyle;rounded=0;orthogonalLoop=1;jettySize=auto;html=1;" edge="1" parent="1" source="z9gnDFO_XMKvGu3rfgV3-1" target="z9gnDFO_XMKvGu3rfgV3-8">
          <mxGeometry relative="1" as="geometry" />
        </mxCell>
        <mxCell id="z9gnDFO_XMKvGu3rfgV3-11" value="" style="edgeStyle=orthogonalEdgeStyle;rounded=0;orthogonalLoop=1;jettySize=auto;html=1;" edge="1" parent="1" source="z9gnDFO_XMKvGu3rfgV3-1" target="z9gnDFO_XMKvGu3rfgV3-10">
          <mxGeometry relative="1" as="geometry" />
        </mxCell>
        <mxCell id="z9gnDFO_XMKvGu3rfgV3-1" value="University" style="rounded=0;whiteSpace=wrap;html=1;" vertex="1" parent="1">
          <mxGeometry x="354" y="40" width="120" height="40" as="geometry" />
        </mxCell>
        <mxCell id="z9gnDFO_XMKvGu3rfgV3-6" value="Classes" style="rounded=0;whiteSpace=wrap;html=1;" vertex="1" parent="1">
          <mxGeometry x="154" y="40" width="120" height="40" as="geometry" />
        </mxCell>
        <mxCell id="z9gnDFO_XMKvGu3rfgV3-8" value="Departments" style="rounded=0;whiteSpace=wrap;html=1;" vertex="1" parent="1">
          <mxGeometry x="554" y="40" width="120" height="40" as="geometry" />
        </mxCell>
        <mxCell id="z9gnDFO_XMKvGu3rfgV3-10" value="Offices" style="rounded=0;whiteSpace=wrap;html=1;" vertex="1" parent="1">
          <mxGeometry x="355" y="160" width="120" height="40" as="geometry" />
        </mxCell>
        <mxCell id="z9gnDFO_XMKvGu3rfgV3-12" value="1" style="text;html=1;align=center;verticalAlign=middle;resizable=0;points=[];autosize=1;strokeColor=none;fillColor=none;" vertex="1" parent="1">
          <mxGeometry x="325" y="35" width="30" height="30" as="geometry" />
        </mxCell>
        <mxCell id="z9gnDFO_XMKvGu3rfgV3-13" value="1*0" style="text;html=1;align=center;verticalAlign=middle;resizable=0;points=[];autosize=1;strokeColor=none;fillColor=none;" vertex="1" parent="1">
          <mxGeometry x="270" y="60" width="40" height="30" as="geometry" />
        </mxCell>
        <mxCell id="z9gnDFO_XMKvGu3rfgV3-14" value="1" style="text;html=1;align=center;verticalAlign=middle;resizable=0;points=[];autosize=1;strokeColor=none;fillColor=none;" vertex="1" parent="1">
          <mxGeometry x="475" y="35" width="30" height="30" as="geometry" />
        </mxCell>
        <mxCell id="z9gnDFO_XMKvGu3rfgV3-15" value="1*0" style="text;html=1;align=center;verticalAlign=middle;resizable=0;points=[];autosize=1;strokeColor=none;fillColor=none;" vertex="1" parent="1">
          <mxGeometry x="514" y="60" width="40" height="30" as="geometry" />
        </mxCell>
        <mxCell id="z9gnDFO_XMKvGu3rfgV3-16" value="1" style="text;html=1;align=center;verticalAlign=middle;resizable=0;points=[];autosize=1;strokeColor=none;fillColor=none;" vertex="1" parent="1">
          <mxGeometry x="385" y="75" width="30" height="30" as="geometry" />
        </mxCell>
        <mxCell id="z9gnDFO_XMKvGu3rfgV3-17" value="1*0" style="text;html=1;align=center;verticalAlign=middle;resizable=0;points=[];autosize=1;strokeColor=none;fillColor=none;" vertex="1" parent="1">
          <mxGeometry x="380" y="135" width="40" height="30" as="geometry" />
        </mxCell>
        <mxCell id="z9gnDFO_XMKvGu3rfgV3-21" value="" style="endArrow=none;html=1;rounded=0;" edge="1" parent="1">
          <mxGeometry width="50" height="50" relative="1" as="geometry">
            <mxPoint x="475" y="179.5" as="sourcePoint" />
            <mxPoint x="610" y="180" as="targetPoint" />
            <Array as="points">
              <mxPoint x="550" y="179.5" />
            </Array>
          </mxGeometry>
        </mxCell>
        <mxCell id="z9gnDFO_XMKvGu3rfgV3-23" value="" style="endArrow=none;html=1;rounded=0;" edge="1" parent="1">
          <mxGeometry width="50" height="50" relative="1" as="geometry">
            <mxPoint x="610" y="180" as="sourcePoint" />
            <mxPoint x="610" y="80" as="targetPoint" />
          </mxGeometry>
        </mxCell>
        <mxCell id="z9gnDFO_XMKvGu3rfgV3-24" value="1*0" style="text;html=1;align=center;verticalAlign=middle;resizable=0;points=[];autosize=1;strokeColor=none;fillColor=none;" vertex="1" parent="1">
          <mxGeometry x="570" y="75" width="40" height="30" as="geometry" />
        </mxCell>
        <mxCell id="z9gnDFO_XMKvGu3rfgV3-25" value="1*0" style="text;html=1;align=center;verticalAlign=middle;resizable=0;points=[];autosize=1;strokeColor=none;fillColor=none;" vertex="1" parent="1">
          <mxGeometry x="470" y="180" width="40" height="30" as="geometry" />
        </mxCell>
        <mxCell id="z9gnDFO_XMKvGu3rfgV3-30" value="Employees" style="rounded=0;whiteSpace=wrap;html=1;" vertex="1" parent="1">
          <mxGeometry x="186" y="160" width="84" height="40" as="geometry" />
        </mxCell>
        <mxCell id="z9gnDFO_XMKvGu3rfgV3-31" value="" style="endArrow=classic;html=1;rounded=0;entryX=1;entryY=0;entryDx=0;entryDy=0;" edge="1" parent="1" target="z9gnDFO_XMKvGu3rfgV3-30">
          <mxGeometry width="50" height="50" relative="1" as="geometry">
            <mxPoint x="354" y="80" as="sourcePoint" />
            <mxPoint x="304" y="130" as="targetPoint" />
            <Array as="points">
              <mxPoint x="324" y="110" />
            </Array>
          </mxGeometry>
        </mxCell>
        <mxCell id="z9gnDFO_XMKvGu3rfgV3-32" value="1" style="text;html=1;align=center;verticalAlign=middle;resizable=0;points=[];autosize=1;strokeColor=none;fillColor=none;" vertex="1" parent="1">
          <mxGeometry x="324" y="65" width="30" height="30" as="geometry" />
        </mxCell>
        <mxCell id="z9gnDFO_XMKvGu3rfgV3-33" value="1*0" style="text;html=1;align=center;verticalAlign=middle;resizable=0;points=[];autosize=1;strokeColor=none;fillColor=none;" vertex="1" parent="1">
          <mxGeometry x="274" y="135" width="40" height="30" as="geometry" />
        </mxCell>
        <mxCell id="z9gnDFO_XMKvGu3rfgV3-34" value="" style="endArrow=classic;html=1;rounded=0;" edge="1" parent="1" target="z9gnDFO_XMKvGu3rfgV3-10">
          <mxGeometry width="50" height="50" relative="1" as="geometry">
            <mxPoint x="270" y="180" as="sourcePoint" />
            <mxPoint x="320" y="130" as="targetPoint" />
          </mxGeometry>
        </mxCell>
        <mxCell id="z9gnDFO_XMKvGu3rfgV3-35" value="1" style="text;html=1;align=center;verticalAlign=middle;resizable=0;points=[];autosize=1;strokeColor=none;fillColor=none;" vertex="1" parent="1">
          <mxGeometry x="265" y="155" width="30" height="30" as="geometry" />
        </mxCell>
        <mxCell id="z9gnDFO_XMKvGu3rfgV3-36" value="1" style="text;html=1;align=center;verticalAlign=middle;resizable=0;points=[];autosize=1;strokeColor=none;fillColor=none;" vertex="1" parent="1">
          <mxGeometry x="335" y="175" width="30" height="30" as="geometry" />
        </mxCell>
        <mxCell id="z9gnDFO_XMKvGu3rfgV3-39" value="Extends" style="endArrow=block;endSize=16;endFill=0;html=1;rounded=0;" edge="1" parent="1">
          <mxGeometry width="160" relative="1" as="geometry">
            <mxPoint x="227.71" y="250" as="sourcePoint" />
            <mxPoint x="227.71" y="200" as="targetPoint" />
          </mxGeometry>
        </mxCell>
        <mxCell id="z9gnDFO_XMKvGu3rfgV3-40" value="Professors" style="html=1;" vertex="1" parent="1">
          <mxGeometry x="110" y="270" width="90" height="30" as="geometry" />
        </mxCell>
        <mxCell id="z9gnDFO_XMKvGu3rfgV3-41" value="Officers" style="html=1;" vertex="1" parent="1">
          <mxGeometry x="260" y="270" width="95" height="30" as="geometry" />
        </mxCell>
        <mxCell id="z9gnDFO_XMKvGu3rfgV3-42" value="" style="endArrow=none;html=1;rounded=0;" edge="1" parent="1">
          <mxGeometry width="50" height="50" relative="1" as="geometry">
            <mxPoint x="150" y="270" as="sourcePoint" />
            <mxPoint x="150" y="250" as="targetPoint" />
          </mxGeometry>
        </mxCell>
        <mxCell id="z9gnDFO_XMKvGu3rfgV3-43" value="" style="endArrow=none;html=1;rounded=0;" edge="1" parent="1">
          <mxGeometry width="50" height="50" relative="1" as="geometry">
            <mxPoint x="150" y="250" as="sourcePoint" />
            <mxPoint x="310" y="250" as="targetPoint" />
          </mxGeometry>
        </mxCell>
        <mxCell id="z9gnDFO_XMKvGu3rfgV3-44" value="" style="endArrow=none;html=1;rounded=0;" edge="1" parent="1">
          <mxGeometry width="50" height="50" relative="1" as="geometry">
            <mxPoint x="310" y="270" as="sourcePoint" />
            <mxPoint x="310" y="250" as="targetPoint" />
          </mxGeometry>
        </mxCell>
      </root>
    </mxGraphModel>
  </diagram>
</mxfile>
